<svg width="16" height="16" viewBox="0 0 16 16" fill="none" xmlns="http://www.w3.org/2000/svg">
    <path fill-rule="evenodd" clip-rule="evenodd" d="M1.39902 6.13033L6.66488 11.4554C6.77148 11.5658 6.89887 11.6535 7.03954 11.7134C7.18021 11.7733 7.33131 11.8042 7.48397 11.8042C7.63662 11.8042 7.78773 11.7733 7.92839 11.7134C8.06906 11.6535 8.19645 11.5658 8.30305 11.4554L13.5737 6.13033C14.0485 5.65059 14.1862 4.99336 13.6781 4.52801L13.4692 4.32652C13.0608 3.96192 12.5528 3.84679 12.1919 4.27375C10.9146 5.56424 9.63257 6.9075 8.30305 8.20279C8.19579 8.31201 8.06819 8.3987 7.92761 8.45786C7.78703 8.51702 7.63625 8.54748 7.48397 8.54748C7.33168 8.54748 7.1809 8.51702 7.04032 8.45786C6.89974 8.3987 6.77214 8.31201 6.66488 8.20279L2.78078 4.27375C2.4199 3.85638 1.90709 3.96192 1.49874 4.32652L1.29456 4.52801C1.19255 4.63781 1.11397 4.76761 1.0637 4.90938C1.01344 5.05114 0.992555 5.20183 1.00235 5.35209C1.01215 5.50235 1.05242 5.64897 1.12065 5.78285C1.18889 5.91673 1.28364 6.035 1.39902 6.13033Z" fill="#1F1340"/>
</svg>
