<svg width="210" height="36" viewBox="0 0 210 36" fill="none" xmlns="http://www.w3.org/2000/svg">
    <path d="M0 6.15018C0 4.78153 0.911607 3.58639 2.21596 3.245L10.9255 0.965455C12.7939 0.476431 14.6143 1.9101 14.6143 3.87063V32.1858C14.6143 34.1287 12.8245 35.5591 10.9663 35.1014L2.2568 32.9559C0.932536 32.6297 0 31.425 0 30.0404V6.15018Z" fill="#3E2780"/>
    <path d="M31 29.8498C31 31.2185 30.0884 32.4136 28.784 32.755L20.0745 35.0345C18.2061 35.5236 16.3857 34.0899 16.3857 32.1294L16.3857 3.81418C16.3857 1.8713 18.1755 0.440887 20.0337 0.898628L28.7432 3.04409C30.0675 3.3703 31 4.57504 31 5.95963L31 29.8498Z" fill="#3E2780"/>
    <path d="M51.0696 10.4545V25H48.4347V10.4545H51.0696ZM56.3803 18.608V25H53.8093V14.0909H56.2667V15.9446H56.3945C56.6455 15.3338 57.0456 14.8485 57.5948 14.4886C58.1488 14.1288 58.833 13.9489 59.6474 13.9489C60.4002 13.9489 61.056 14.1098 61.6147 14.4318C62.1781 14.7538 62.6138 15.2202 62.9215 15.831C63.234 16.4418 63.3879 17.1828 63.3832 18.054V25H60.8121V18.4517C60.8121 17.7225 60.6228 17.152 60.244 16.7401C59.8699 16.3281 59.3514 16.1222 58.6886 16.1222C58.2388 16.1222 57.8387 16.2216 57.4883 16.4205C57.1426 16.6146 56.8704 16.8963 56.6715 17.2656C56.4774 17.6349 56.3803 18.0824 56.3803 18.608ZM74.619 16.9744L72.2752 17.2301C72.2089 16.9934 72.0929 16.7708 71.9272 16.5625C71.7662 16.3542 71.5484 16.1861 71.2738 16.0582C70.9992 15.9304 70.663 15.8665 70.2653 15.8665C69.7302 15.8665 69.2804 15.9825 68.9158 16.2145C68.556 16.4465 68.3784 16.7472 68.3832 17.1165C68.3784 17.4337 68.4944 17.6918 68.7312 17.8906C68.9727 18.0895 69.3704 18.2528 69.9244 18.3807L71.7852 18.7784C72.8174 19.0009 73.5844 19.3537 74.0863 19.8366C74.5929 20.3196 74.8486 20.9517 74.8533 21.733C74.8486 22.4195 74.6474 23.0256 74.2496 23.5511C73.8567 24.072 73.3098 24.4792 72.609 24.7727C71.9083 25.0663 71.1033 25.2131 70.1942 25.2131C68.859 25.2131 67.7842 24.9337 66.9698 24.375C66.1554 23.8116 65.6701 23.0279 65.5138 22.0241L68.021 21.7827C68.1346 22.2751 68.3761 22.6468 68.7454 22.8977C69.1147 23.1487 69.5953 23.2741 70.1871 23.2741C70.7979 23.2741 71.288 23.1487 71.6573 22.8977C72.0314 22.6468 72.2184 22.3366 72.2184 21.9673C72.2184 21.6548 72.0977 21.3968 71.8562 21.1932C71.6194 20.9896 71.2501 20.8333 70.7482 20.7244L68.8874 20.3338C67.841 20.116 67.0669 19.7491 66.565 19.233C66.0631 18.7121 65.8145 18.054 65.8192 17.2585C65.8145 16.5862 65.9968 16.0038 66.3661 15.5114C66.7402 15.0142 67.2586 14.6307 67.9215 14.3608C68.5891 14.0862 69.3585 13.9489 70.2298 13.9489C71.5082 13.9489 72.5143 14.2211 73.2482 14.7656C73.9869 15.3101 74.4438 16.0464 74.619 16.9744ZM82.4208 14.0909V16.0795H76.1495V14.0909H82.4208ZM77.6978 11.4773H80.2688V21.7188C80.2688 22.0644 80.3209 22.3295 80.4251 22.5142C80.534 22.6941 80.676 22.8172 80.8512 22.8835C81.0264 22.9498 81.2205 22.983 81.4336 22.983C81.5946 22.983 81.7414 22.9711 81.8739 22.9474C82.0112 22.9238 82.1154 22.9025 82.1864 22.8835L82.6197 24.8935C82.4824 24.9408 82.2859 24.9929 82.0302 25.0497C81.7792 25.1065 81.4715 25.1397 81.1069 25.1491C80.4629 25.1681 79.8829 25.071 79.3668 24.858C78.8507 24.6402 78.4412 24.304 78.1381 23.8494C77.8398 23.3949 77.6931 22.8267 77.6978 22.1449V11.4773ZM87.7102 25.2202C87.0189 25.2202 86.3963 25.0971 85.8423 24.8509C85.2931 24.5999 84.8575 24.2306 84.5355 23.7429C84.2183 23.2552 84.0597 22.6539 84.0597 21.9389C84.0597 21.3234 84.1733 20.8144 84.4006 20.4119C84.6278 20.0095 84.938 19.6875 85.331 19.446C85.724 19.2045 86.1667 19.0223 86.6591 18.8991C87.1563 18.7713 87.67 18.679 88.2003 18.6222C88.8395 18.5559 89.358 18.4967 89.7557 18.4446C90.1534 18.3878 90.4422 18.3026 90.6222 18.1889C90.8068 18.0705 90.8991 17.8883 90.8991 17.642V17.5994C90.8991 17.0644 90.7405 16.6501 90.4233 16.3565C90.1061 16.063 89.6491 15.9162 89.0526 15.9162C88.4228 15.9162 87.9233 16.0535 87.554 16.3281C87.1894 16.6027 86.9432 16.9271 86.8153 17.3011L84.4148 16.9602C84.6042 16.2973 84.9167 15.7434 85.3523 15.2983C85.7879 14.8485 86.3205 14.5123 86.9503 14.2898C87.58 14.0625 88.276 13.9489 89.0384 13.9489C89.5639 13.9489 90.0871 14.0104 90.608 14.1335C91.1288 14.2566 91.6046 14.4602 92.0355 14.7443C92.4664 15.0237 92.812 15.4048 93.0724 15.8878C93.3376 16.3707 93.4702 16.9744 93.4702 17.6989V25H90.9986V23.5014H90.9134C90.7571 23.8045 90.5369 24.0885 90.2528 24.3537C89.9735 24.6141 89.6207 24.8248 89.1946 24.9858C88.7732 25.142 88.2784 25.2202 87.7102 25.2202ZM88.3778 23.331C88.8939 23.331 89.3414 23.2292 89.7202 23.0256C90.099 22.8172 90.3902 22.5426 90.5938 22.2017C90.8021 21.8608 90.9062 21.4891 90.9062 21.0866V19.8011C90.8258 19.8674 90.6884 19.929 90.4943 19.9858C90.3049 20.0426 90.0919 20.0923 89.8551 20.1349C89.6184 20.1776 89.384 20.2154 89.152 20.2486C88.92 20.2817 88.7188 20.3101 88.5483 20.3338C88.1648 20.3859 87.8215 20.4711 87.5185 20.5895C87.2154 20.7079 86.9763 20.8736 86.8011 21.0866C86.6259 21.295 86.5384 21.5649 86.5384 21.8963C86.5384 22.3698 86.7112 22.7273 87.0568 22.9688C87.4025 23.2102 87.8428 23.331 88.3778 23.331ZM98.6264 18.608V25H96.0554V14.0909H98.5128V15.9446H98.6406C98.8916 15.3338 99.2917 14.8485 99.8409 14.4886C100.395 14.1288 101.079 13.9489 101.893 13.9489C102.646 13.9489 103.302 14.1098 103.861 14.4318C104.424 14.7538 104.86 15.2202 105.168 15.831C105.48 16.4418 105.634 17.1828 105.629 18.054V25H103.058V18.4517C103.058 17.7225 102.869 17.152 102.49 16.7401C102.116 16.3281 101.598 16.1222 100.935 16.1222C100.485 16.1222 100.085 16.2216 99.7344 16.4205C99.3887 16.6146 99.1165 16.8963 98.9176 17.2656C98.7235 17.6349 98.6264 18.0824 98.6264 18.608ZM113.69 14.0909V16.0795H107.419V14.0909H113.69ZM108.967 11.4773H111.538V21.7188C111.538 22.0644 111.59 22.3295 111.695 22.5142C111.804 22.6941 111.946 22.8172 112.121 22.8835C112.296 22.9498 112.49 22.983 112.703 22.983C112.864 22.983 113.011 22.9711 113.143 22.9474C113.281 22.9238 113.385 22.9025 113.456 22.8835L113.889 24.8935C113.752 24.9408 113.555 24.9929 113.3 25.0497C113.049 25.1065 112.741 25.1397 112.376 25.1491C111.732 25.1681 111.152 25.071 110.636 24.858C110.12 24.6402 109.711 24.304 109.408 23.8494C109.109 23.3949 108.963 22.8267 108.967 22.1449V11.4773ZM123.55 10.4545V25H120.915V10.4545H123.55ZM128.861 18.608V25H126.29V14.0909H128.747V15.9446H128.875C129.126 15.3338 129.526 14.8485 130.075 14.4886C130.629 14.1288 131.313 13.9489 132.128 13.9489C132.881 13.9489 133.536 14.1098 134.095 14.4318C134.659 14.7538 135.094 15.2202 135.402 15.831C135.714 16.4418 135.868 17.1828 135.864 18.054V25H133.293V18.4517C133.293 17.7225 133.103 17.152 132.724 16.7401C132.35 16.3281 131.832 16.1222 131.169 16.1222C130.719 16.1222 130.319 16.2216 129.969 16.4205C129.623 16.6146 129.351 16.8963 129.152 17.2656C128.958 17.6349 128.861 18.0824 128.861 18.608ZM144.003 14.0909V16.0795H137.554V14.0909H144.003ZM139.166 25V13.0611C139.166 12.3272 139.318 11.7164 139.621 11.2287C139.929 10.741 140.34 10.3764 140.857 10.1349C141.373 9.89347 141.946 9.77273 142.575 9.77273C143.02 9.77273 143.416 9.80824 143.761 9.87926C144.107 9.95028 144.363 10.0142 144.528 10.071L144.017 12.0597C143.908 12.0265 143.771 11.9934 143.605 11.9602C143.439 11.9223 143.255 11.9034 143.051 11.9034C142.573 11.9034 142.234 12.0194 142.036 12.2514C141.841 12.4787 141.744 12.8054 141.744 13.2315V25H139.166ZM148.587 10.4545V25H146.016V10.4545H148.587ZM158.184 20.4119V14.0909H160.755V25H158.262V23.0611H158.149C157.903 23.6719 157.498 24.1714 156.934 24.5597C156.376 24.9479 155.687 25.142 154.868 25.142C154.153 25.142 153.52 24.9834 152.971 24.6662C152.427 24.3442 152.001 23.8778 151.693 23.267C151.385 22.6515 151.231 21.9081 151.231 21.0369V14.0909H153.802V20.6392C153.802 21.3305 153.992 21.8797 154.37 22.2869C154.749 22.6941 155.246 22.8977 155.862 22.8977C156.241 22.8977 156.608 22.8054 156.963 22.6207C157.318 22.4361 157.609 22.1615 157.836 21.7969C158.068 21.4276 158.184 20.9659 158.184 20.4119ZM168.229 25.2131C167.135 25.2131 166.19 24.9858 165.395 24.5312C164.604 24.072 163.996 23.4233 163.57 22.5852C163.143 21.7424 162.93 20.7505 162.93 19.6094C162.93 18.4872 163.143 17.5024 163.57 16.6548C164 15.8026 164.602 15.1397 165.374 14.6662C166.145 14.188 167.052 13.9489 168.094 13.9489C168.766 13.9489 169.401 14.0578 169.997 14.2756C170.598 14.4886 171.129 14.8201 171.588 15.2699C172.052 15.7197 172.417 16.2926 172.682 16.9886C172.947 17.6799 173.08 18.5038 173.08 19.4602V20.2486H164.138V18.5156H170.615C170.61 18.0232 170.504 17.5852 170.295 17.2017C170.087 16.8134 169.796 16.508 169.422 16.2855C169.053 16.063 168.622 15.9517 168.129 15.9517C167.604 15.9517 167.142 16.0795 166.744 16.3352C166.347 16.5862 166.036 16.9176 165.814 17.3295C165.596 17.7367 165.485 18.1842 165.48 18.6719V20.1847C165.48 20.8191 165.596 21.3636 165.828 21.8182C166.06 22.268 166.384 22.6136 166.801 22.8551C167.218 23.0919 167.705 23.2102 168.264 23.2102C168.638 23.2102 168.977 23.1581 169.28 23.054C169.583 22.9451 169.846 22.7865 170.068 22.5781C170.291 22.3698 170.459 22.1117 170.572 21.804L172.973 22.0739C172.821 22.7083 172.533 23.2623 172.107 23.7358C171.685 24.2045 171.145 24.5691 170.487 24.8295C169.829 25.0852 169.076 25.2131 168.229 25.2131ZM177.826 18.608V25H175.255V14.0909H177.712V15.9446H177.84C178.091 15.3338 178.491 14.8485 179.04 14.4886C179.594 14.1288 180.278 13.9489 181.093 13.9489C181.846 13.9489 182.501 14.1098 183.06 14.4318C183.623 14.7538 184.059 15.2202 184.367 15.831C184.679 16.4418 184.833 17.1828 184.828 18.054V25H182.257V18.4517C182.257 17.7225 182.068 17.152 181.689 16.7401C181.315 16.3281 180.797 16.1222 180.134 16.1222C179.684 16.1222 179.284 16.2216 178.934 16.4205C178.588 16.6146 178.316 16.8963 178.117 17.2656C177.923 17.6349 177.826 18.0824 177.826 18.608ZM192.201 25.2131C191.112 25.2131 190.176 24.974 189.395 24.4957C188.619 24.0175 188.02 23.357 187.598 22.5142C187.182 21.6667 186.973 20.6913 186.973 19.5881C186.973 18.4801 187.186 17.5024 187.613 16.6548C188.039 15.8026 188.64 15.1397 189.417 14.6662C190.198 14.188 191.121 13.9489 192.186 13.9489C193.072 13.9489 193.855 14.1122 194.537 14.4389C195.224 14.7609 195.771 15.2178 196.178 15.8097C196.585 16.3968 196.817 17.0833 196.874 17.8693H194.417C194.317 17.3437 194.08 16.9058 193.706 16.5554C193.337 16.2003 192.842 16.0227 192.222 16.0227C191.696 16.0227 191.235 16.1648 190.837 16.4489C190.439 16.7282 190.129 17.1307 189.907 17.6562C189.689 18.1818 189.58 18.8116 189.58 19.5455C189.58 20.2888 189.689 20.928 189.907 21.4631C190.124 21.9934 190.43 22.4029 190.823 22.6918C191.221 22.9759 191.687 23.1179 192.222 23.1179C192.601 23.1179 192.939 23.0469 193.238 22.9048C193.541 22.758 193.794 22.5473 193.998 22.2727C194.201 21.9981 194.341 21.6643 194.417 21.2713H196.874C196.812 22.0431 196.585 22.7273 196.192 23.3239C195.799 23.9157 195.264 24.3797 194.587 24.7159C193.91 25.0473 193.114 25.2131 192.201 25.2131ZM203.815 25.2131C202.721 25.2131 201.776 24.9858 200.981 24.5312C200.19 24.072 199.582 23.4233 199.156 22.5852C198.729 21.7424 198.516 20.7505 198.516 19.6094C198.516 18.4872 198.729 17.5024 199.156 16.6548C199.586 15.8026 200.188 15.1397 200.96 14.6662C201.731 14.188 202.638 13.9489 203.68 13.9489C204.352 13.9489 204.987 14.0578 205.583 14.2756C206.184 14.4886 206.715 14.8201 207.174 15.2699C207.638 15.7197 208.003 16.2926 208.268 16.9886C208.533 17.6799 208.665 18.5038 208.665 19.4602V20.2486H199.724V18.5156H206.201C206.196 18.0232 206.09 17.5852 205.881 17.2017C205.673 16.8134 205.382 16.508 205.008 16.2855C204.638 16.063 204.208 15.9517 203.715 15.9517C203.19 15.9517 202.728 16.0795 202.33 16.3352C201.933 16.5862 201.622 16.9176 201.4 17.3295C201.182 17.7367 201.071 18.1842 201.066 18.6719V20.1847C201.066 20.8191 201.182 21.3636 201.414 21.8182C201.646 22.268 201.97 22.6136 202.387 22.8551C202.804 23.0919 203.291 23.2102 203.85 23.2102C204.224 23.2102 204.563 23.1581 204.866 23.054C205.169 22.9451 205.432 22.7865 205.654 22.5781C205.877 22.3698 206.045 22.1117 206.158 21.804L208.559 22.0739C208.407 22.7083 208.119 23.2623 207.692 23.7358C207.271 24.2045 206.731 24.5691 206.073 24.8295C205.415 25.0852 204.662 25.2131 203.815 25.2131Z" fill="#132E8D"/>
</svg>
